#!OML:ASF G:\JayActor3\Patient Classification 1\Patient 1\Session 6\male.ASF
:FULLY-SPECIFIED
:DEGREES
1393
root -19.8549 16.233 10.4212 7.47118 -102.157 -364.273
lowerback 3.38666 1.4448 6.21936
upperback 4.47876 1.861 0.892371
thorax 2.91186 1.04972 -2.57242
lowerneck 6.75971 1.8455 4.658
upperneck -7.30874 2.91206 -0.0495214
head -3.49756 1.2955 -0.98287
rclavicle -1.61016e-014 -2.38542e-014
rhumerus -26.9229 33.7914 -100.53
rradius 65.5035
rwrist 13.5687
rhand -46.3501 7.71719
rfingers 7.12502
rthumb -19.0824 -21.3667
lclavicle -1.61016e-014 -2.38542e-014
lhumerus -38.1504 -16.6514 85.6966
lradius 69.805
lwrist 11.0296
lhand -14.5325 12.111
lfingers 7.12502
lthumb 11.6156 41.7691
rfemur 0.69122 12.1062 32.702
rtibia 46.3836
rfoot -4.64601 -1.84488
rtoes -5.39967
lfemur -33.8458 0.715521 -8.80322
ltibia 31.994
lfoot 9.06933 -12.8198
ltoes -9.67755
1394
root -20.0215 16.2327 10.4533 7.8772 -103.472 -364.739
lowerback 3.54027 1.47383 6.00542
upperback 4.4798 1.90718 0.851335
thorax 2.82303 1.064 -2.50018
lowerneck 6.7356 2.07725 4.90925
upperneck -7.22647 3.21666 -0.411201
head -3.44752 1.45719 -1.15949
rclavicle 2.38542e-014 -9.54166e-015
rhumerus -27.2163 34.0093 -100.696
rradius 65.51
rwrist 13.5544
rhand -45.9238 7.50454
rfingers 7.12502
rthumb -18.6724 -21.6193
lclavicle 2.38542e-014 -9.54166e-015
lhumerus -38.0313 -16.7568 85.3354
lradius 70.0496
lwrist 11.0652
lhand -13.7947 12.3487
lfingers 7.12502
lthumb 12.327 41.9654
rfemur -0.389228 12.0616 32.0072
rtibia 48.9206
rfoot -2.72011 -2.37033
rtoes -5.29338
lfemur -33.1039 0.92064 -8.91293
ltibia 32.6736
lfoot 7.25556 -13.1512
ltoes -11.0516
1395
root -20.1842 16.2332 10.4828 8.61609 -104.8 -365.546
lowerback 3.71248 1.49679 5.67186
upperback 4.503 1.94349 0.77101
thorax 2.74207 1.07127 -2.40209
lowerneck 6.65801 2.32601 5.14703
upperneck -7.1555 3.54126 -0.751104
head -3.38914 1.62782 -1.32589
rclavicle -3.53837e-014 3.97569e-015
rhumerus -27.4404 34.2038 -100.843
rradius 65.514
rwrist 13.5757
rhand -45.4731 7.29723
rfingers 7.12502
rthumb -18.2388 -21.8677
lclavicle -3.53837e-014 3.97569e-015
lhumerus -37.8354 -16.8653 84.9253
lradius 70.2933
lwrist 11.0918
lhand -13.1239 12.5699
lfingers 7.12502
lthumb 12.9737 42.1465
rfemur -1.65804 11.9956 31.2208
rtibia 51.6753
rfoot -0.785098 -3.13447
rtoes -4.93333
lfemur -32.3181 1.13755 -9.14742
ltibia 33.2342
lfoot 5.56632 -13.3352
ltoes -12.1875
1396
root -20.3426 16.234 10.5099 9.69316 -106.135 -366.693
lowerback 3.88895 1.50976 5.20096
upperback 4.54136 1.96337 0.643305
thorax 2.66886 1.06786 -2.27605
lowerneck 6.52535 2.58137 5.34125
upperneck -7.09194 3.87085 -1.03878
head -3.32226 1.79948 -1.4655
rclavicle -3.35946e-014 -1.27222e-014
rhumerus -27.6009 34.3936 -100.979
rradius 65.5096
rwrist 13.5928
rhand -45.0069 7.10921
rfingers 7.12502
rthumb -17.7903 -22.097
lclavicle -3.35946e-014 -1.27222e-014
lhumerus -37.5736 -16.9693 84.4597
lradius 70.5504
lwrist 11.138
lhand -12.4838 12.7863
lfingers 7.12502
lthumb 13.5907 42.3227
rfemur -3.11295 11.8837 30.3105
rtibia 54.6067
rfoot 1.12905 -4.13052
rtoes -4.20461
lfemur -31.4948 1.38146 -9.55081
ltibia 33.6515
lfoot 4.01577 -13.381
ltoes -12.9904
1397
root -20.4963 16.2351 10.5343 11.0252 -107.472 -368.097
lowerback 4.06082 1.51102 4.59483
upperback 4.58305 1.96382 0.467832
thorax 2.59637 1.052 -2.12321
lowerneck 6.40376 2.83611 5.51676
upperneck -7.05849 4.20099 -1.29285
head -3.26736 1.96961 -1.59065
rclavicle 1.05356e-014 1.27222e-014
rhumerus -27.7286 34.5703 -101.127
rradius 65.4997
rwrist 13.6127
rhand -44.5484 6.90696
rfingers 7.12502
rthumb -17.349 -22.3387
lclavicle 1.05356e-014 1.27222e-014
lhumerus -37.2736 -17.08 83.9408
lradius 70.8274
lwrist 11.2237
lhand -11.8688 12.9978
lfingers 7.12502
lthumb 14.1834 42.4936
rfemur -4.73416 11.7082 29.2819
rtibia 57.66
rfoot 2.9601 -5.38846
rtoes -3.31892
lfemur -30.6443 1.69439 -10.1389
ltibia 33.9196
lfoot 2.626 -13.3531
ltoes -13.447
1398
root -20.6458 16.236 10.5558 12.5118 -108.827 -369.669
lowerback 4.22122 1.50679 3.86239
upperback 4.63584 1.95109 0.247853
thorax 2.538 1.02696 -1.94456
lowerneck 6.29986 3.08772 5.67412
upperneck -7.06764 4.5284 -1.51883
head -3.23019 2.13656 -1.70384
rclavicle -2.78299e-015 -1.74931e-014
rhumerus -27.81 34.7348 -101.277
rradius 65.4893
rwrist 13.5872
rhand -44.0917 6.71335
rfingers 7.12502
rthumb -16.9094 -22.5705
lclavicle -2.78299e-015 -1.74931e-014
lhumerus -36.9293 -17.1956 83.3706
lradius 71.1259
lwrist 11.3289
lhand -11.2831 13.1978
lfingers 7.12502
lthumb 14.7477 42.6532
rfemur -6.48551 11.4648 28.1419
rtibia 60.7666
rfoot 4.56793 -6.84491
rtoes -2.61876
lfemur -29.7615 2.10912 -10.908
ltibia 34.05
lfoot 1.38412 -13.2405
ltoes -13.5239
1399
root -20.7908 16.2364 10.5745 14.0016 -110.226 -371.245
lowerback 4.3626 1.50936 3.03779
upperback 4.69619 1.94116 -0.00414771
thorax 2.49683 1.001 -1.74619
lowerneck 6.21886 3.33691 5.83458
upperneck -7.12146 4.85437 -1.74243
head -3.21159 2.30148 -1.81793
rclavicle 2.78299e-015 -4.77083e-015
rhumerus -27.8458 34.8845 -101.425
rradius 65.4782
rwrist 13.5278
rhand -43.6402 6.52402
rfingers 7.12502
rthumb -16.4748 -22.7965
lclavicle 2.78299e-015 -4.77083e-015
lhumerus -36.5389 -17.3114 82.7503
lradius 71.4497
lwrist 11.4623
lhand -10.691 13.401
lfingers 7.12502
lthumb 15.3182 42.8137
rfemur -8.35002 11.1759 26.9321
rtibia 63.8594
rfoot 5.79751 -8.39074
rtoes -2.09376
lfemur -28.8626 2.6567 -11.8155
ltibia 34.0703
lfoot 0.229769 -13.0587
ltoes -13.4538
1400
root -20.9321 16.2361 10.5914 15.3596 -111.644 -372.704
lowerback 4.49716 1.51151 2.18274
upperback 4.77049 1.92511 -0.274782
thorax 2.47445 0.970594 -1.54897
lowerneck 6.16022 3.59067 6.01312
upperneck -7.21727 5.18809 -1.98335
head -3.20931 2.4694 -1.94271
rclavicle -4.03533e-014 1.90833e-014
rhumerus -27.8274 35.0233 -101.562
rradius 65.462
rwrist 13.4548
rhand -43.2037 6.30865
rfingers 7.12502
rthumb -16.0546 -23.0462
lclavicle -4.03533e-014 1.90833e-014
lhumerus -36.0978 -17.4288 82.0848
lradius 71.7901
lwrist 11.6121
lhand -10.1174 13.5947
lfingers 7.12502
lthumb 15.8706 42.9643
rfemur -10.2754 10.8237 25.7069
rtibia 66.8651
rfoot 6.5134 -9.90198
rtoes -1.58345
lfemur -27.9465 3.30597 -12.8029
ltibia 34.0131
lfoot -0.870603 -12.8203
ltoes -13.3396
1401
root -21.0698 16.2341 10.6074 16.4919 -113.077 -373.947
lowerback 4.6343 1.51531 1.35028
upperback 4.85101 1.90726 -0.549957
thorax 2.45951 0.938768 -1.3687
lowerneck 6.1413 3.8552 6.21943
upperneck -7.35382 5.53853 -2.26113
head -3.22485 2.64543 -2.08772
rclavicle 6.55989e-015 -2.38542e-015
rhumerus -27.766 35.1423 -101.685
rradius 65.4426
rwrist 13.3945
rhand -42.7736 6.0995
rfingers 7.12502
rthumb -15.6403 -23.2883
lclavicle 6.55989e-015 -2.38542e-015
lhumerus -35.6182 -17.5418 81.3868
lradius 72.1395
lwrist 11.7583
lhand -9.58431 13.7762
lfingers 7.12502
lthumb 16.3839 43.1042
rfemur -12.2327 10.4496 24.5315
rtibia 69.7267
rfoot 6.63033 -11.2617
rtoes -1.18435
lfemur -27.0293 4.02207 -13.8047
ltibia 33.912
lfoot -1.9427 -12.5141
ltoes -13.2564
